<?xml version="1.0" encoding="UTF-8"?>
<svg xmlns="http://www.w3.org/2000/svg" id="Layer_1" viewBox="0 0 600 600">
  <defs>
    <style>.cls-1{fill:#fff;}.cls-2{fill:#ff5900;}.cls-3{fill:none;stroke:#ff5900;stroke-miterlimit:10;stroke-width:1.05px;}</style>
  </defs>
  <rect class="cls-2" width="600" height="600"></rect>
  <rect class="cls-3" width="600" height="600"></rect>
  <g>
    <path class="cls-1" d="m133.85,328.24c-1.36.47-2.81.73-4.33.73-4.73,0-7.02-2.49-9.09-6.23-.69-1.18-1.06-3.78-1.06-3.78v-20.49h17.52l-.93-8.17c-.46-4.03-3.86-7.07-7.92-7.07h-8.67v-25.33s-5.25.35-7,.49c-8.97.7-15.03,6.67-15.03,13.65l.04,11.78-15.5.58v5.9c0,4.52,3.67,8.2,8.19,8.2h7.31v20.98l.1,3.07c.07,13.05,10.68,23.61,23.74,23.61,4.64,0,8.97-1.34,12.63-3.64v-14.24Z"></path>
    <path class="cls-1" d="m280.43,330.52c2.22-1.03,3.91-2.37,5.07-4.02v-5.19c-3.55-2.39-7.59-3.59-12.12-3.59-2.89,0-5.11.62-6.68,1.85-1.57,1.24-2.35,3.05-2.35,5.44,0,2.23.76,3.96,2.29,5.2,1.52,1.24,3.73,1.86,6.62,1.86,2.55,0,4.95-.52,7.17-1.55m-31.6,9.52c-4.58-3.59-6.86-8.6-6.86-15.03s2.2-11.81,6.62-15.4c4.41-3.58,10.74-5.38,18.98-5.38,3.22,0,6.43.35,9.65,1.05,3.22.7,5.98,1.63,8.29,2.78v-1.24c0-6.35-5.2-9.52-15.58-9.52-7.26,0-11.7.45-17.72,3.26,0,0-.82-6-1.01-8.04-.44-4.51,3.11-7.88,9.08-8.98.04,0,.09-.02.13-.02,4.29-.78,8.74-1.17,13.36-1.17,11.05,0,19.4,2.21,25.05,6.62,5.65,4.41,8.47,10.58,8.47,18.49v27.15c0,7.28-2.54,8.97-8.56,8.97h-11.28l-.57-5.07c-2.22,2.14-5.03,3.83-8.41,5.07-3.38,1.24-7.26,1.85-11.63,1.85-7.42,0-13.42-1.79-18-5.38"></path>
    <path class="cls-1" d="m434.59,330.52c2.22-1.03,3.91-2.37,5.07-4.02v-5.19c-3.55-2.39-7.59-3.59-12.12-3.59-2.89,0-5.11.62-6.68,1.85-1.57,1.24-2.35,3.05-2.35,5.44,0,2.23.76,3.96,2.29,5.2,1.52,1.24,3.73,1.86,6.62,1.86,2.55,0,4.95-.52,7.17-1.55m-31.6,9.52c-4.58-3.59-6.86-8.6-6.86-15.03s2.2-11.81,6.62-15.4c4.41-3.58,10.74-5.38,18.98-5.38,3.22,0,6.43.35,9.65,1.05,3.22.7,5.98,1.63,8.29,2.78v-1.24c0-6.35-5.2-9.52-15.58-9.52-7.26,0-11.7.45-17.72,3.26,0,0-.82-6-1.01-8.04-.44-4.51,3.11-7.88,9.08-8.98.04,0,.08-.02.13-.02,4.29-.78,8.74-1.17,13.36-1.17,11.05,0,19.4,2.21,25.05,6.62,5.65,4.41,8.47,10.58,8.47,18.49v27.15c0,7.28-2.54,8.97-8.56,8.97h-11.28l-.57-5.07c-2.22,2.14-5.03,3.83-8.41,5.07-3.38,1.24-7.26,1.85-11.63,1.85-7.42,0-13.42-1.79-18-5.38"></path>
    <path class="cls-1" d="m177.31,330.52c2.22-1.03,3.91-2.37,5.07-4.02v-5.19c-3.55-2.39-7.59-3.59-12.12-3.59-2.89,0-5.11.62-6.68,1.85-1.57,1.24-2.35,3.05-2.35,5.44,0,2.23.76,3.96,2.29,5.2,1.52,1.24,3.73,1.86,6.62,1.86,2.55,0,4.95-.52,7.17-1.55m-31.6,9.52c-4.58-3.59-6.86-8.6-6.86-15.03s2.2-11.81,6.62-15.4c4.41-3.58,10.74-5.38,18.98-5.38,3.22,0,6.43.35,9.65,1.05,3.22.7,5.98,1.63,8.29,2.78v-1.24c0-6.35-5.2-9.52-15.59-9.52-7.26,0-11.69.45-17.71,3.26,0,0-.82-6-1.01-8.04-.44-4.51,3.11-7.88,9.08-8.98.04,0,.09-.02.13-.02,4.29-.78,8.74-1.17,13.36-1.17,11.05,0,19.4,2.21,25.05,6.62,5.65,4.41,8.47,10.58,8.47,18.49v27.15c0,7.28-2.54,8.97-8.56,8.97h-11.28l-.57-5.07c-2.23,2.14-5.03,3.83-8.41,5.07-3.38,1.24-7.26,1.85-11.63,1.85-7.42,0-13.42-1.79-18-5.38"></path>
    <path class="cls-1" d="m234.44,343.57l-.02-89.69s-5.18.34-6.9.48c-8.85.7-14.83,6.6-14.83,13.51l-.02,75.7h21.77Z"></path>
    <path class="cls-1" d="m363.13,324.7c-2.72,2.6-6.31,3.89-10.76,3.89-3.3,0-6.27-.84-8.9-2.53-2.64-1.69-4.54-3.98-5.69-6.86v-10.51c1.15-2.88,3.05-5.17,5.69-6.86,2.64-1.69,5.61-2.53,8.9-2.53,4.45,0,8.04,1.32,10.76,3.96,2.72,2.64,4.08,6.23,4.08,10.76s-1.36,8.1-4.08,10.7m22.51-27.21c-2.64-4.82-6.33-8.55-11.07-11.2-4.74-2.64-10.24-3.96-16.51-3.96-3.96,0-7.73.6-11.32,1.79-3.59,1.2-6.58,2.83-8.97,4.89l.03-35.15s-5.2.34-6.93.48c-8.88.7-14.88,6.6-14.88,13.51v75.7h20.46l.57-5.94c5.52,5.19,12.53,7.79,21.03,7.79,6.18,0,11.67-1.3,16.45-3.9,4.78-2.6,8.49-6.26,11.13-11.01,2.64-4.74,3.96-10.24,3.96-16.51s-1.32-11.69-3.96-16.51"></path>
    <path class="cls-1" d="m515.1,328.24c-1.36.47-2.81.73-4.33.73-4.73,0-7.02-2.49-9.09-6.23-.69-1.18-1.06-3.78-1.06-3.78v-20.49h17.52l-.93-8.17c-.46-4.03-3.86-7.07-7.92-7.07h-8.67v-25.33s-5.25.35-7,.49c-8.97.7-15.03,6.67-15.03,13.65l.04,11.78-15.5.58v5.9c0,4.52,3.67,8.2,8.19,8.2h7.31v20.98l.1,3.07c.07,13.05,10.68,23.61,23.75,23.61,4.64,0,8.97-1.34,12.63-3.64v-14.24Z"></path>
  </g>
</svg>
